<svg id="Layer_1" data-name="Layer 1" xmlns="http://www.w3.org/2000/svg" xmlns:xlink="http://www.w3.org/1999/xlink" viewBox="0 0 987.43 274.25"><defs><style>.cls-1{fill:url(#linear-gradient);}.cls-2{fill:url(#linear-gradient-2);}.cls-3{fill:url(#linear-gradient-4);}.cls-4{fill:url(#linear-gradient-5);}.cls-5{fill:url(#linear-gradient-7);}.cls-6{fill:#fff;}</style><linearGradient id="linear-gradient" x1="126.53" y1="-5.54" x2="10.24" y2="267.35" gradientUnits="userSpaceOnUse"><stop offset="0" stop-color="#f99170"/><stop offset="1" stop-color="#ad4bf9"/></linearGradient><linearGradient id="linear-gradient-2" x1="89.61" y1="-21.28" x2="-26.68" y2="251.62" xlink:href="#linear-gradient"/><linearGradient id="linear-gradient-4" x1="92.72" y1="-19.95" x2="-23.57" y2="252.94" xlink:href="#linear-gradient"/><linearGradient id="linear-gradient-5" x1="151.71" y1="5.19" x2="35.42" y2="278.08" xlink:href="#linear-gradient"/><linearGradient id="linear-gradient-7" x1="145.71" y1="2.63" x2="29.42" y2="275.52" xlink:href="#linear-gradient"/></defs><circle class="cls-1" cx="69.44" cy="128.41" r="7.15"/><path class="cls-2" d="M99.76,0a7.14,7.14,0,0,0-7.14,7.15s0,.1,0,.16l-89,52.48V168.26l62-33.81a7.14,7.14,0,1,0-3.34-6.11L10.63,156.53V63.77L96.18,13.3A7.14,7.14,0,1,0,99.76,0Z"/><path class="cls-2" d="M99.76,0a7.14,7.14,0,0,0-7.14,7.15s0,.1,0,.16l-89,52.48V168.26l62-33.81a7.14,7.14,0,1,0-3.34-6.11L10.63,156.53V63.77L96.18,13.3A7.14,7.14,0,1,0,99.76,0Z"/><path class="cls-3" d="M84.31,29.23a4.66,4.66,0,0,0-4.66,4.66s0,.07,0,.11L21.6,68.25V139L62.05,117a4.57,4.57,0,0,0,2.48.73A4.67,4.67,0,1,0,59.87,113l-33.73,18.4V70.84L82,37.91a4.66,4.66,0,1,0,2.34-8.68Z"/><path class="cls-4" d="M106.91,111.86a7.15,7.15,0,1,0-10.63,6.2v92.42L10.73,261a7.05,7.05,0,0,0-3.58-1,7.15,7.15,0,1,0,7.14,7.15,1,1,0,0,0,0-.17l89-52.48v-96.4A7.11,7.11,0,0,0,106.91,111.86Z"/><path class="cls-4" d="M106.91,111.86a7.15,7.15,0,1,0-10.63,6.2v92.42L10.73,261a7.05,7.05,0,0,0-3.58-1,7.15,7.15,0,1,0,7.14,7.15,1,1,0,0,0,0-.17l89-52.48v-96.4A7.11,7.11,0,0,0,106.91,111.86Z"/><path class="cls-5" d="M87.7,139.75a4.58,4.58,0,1,0-6.81,4v59.21L26.08,235.28a4.52,4.52,0,0,0-2.3-.64,4.58,4.58,0,1,0,4.58,4.58s0-.07,0-.11l57-33.62V143.72A4.54,4.54,0,0,0,87.7,139.75Z"/><path class="cls-6" d="M193.61,188.19a48,48,0,0,1-19.36-3.75,36,36,0,0,1-14.16-10.72A34.62,34.62,0,0,1,153,157.14l17-2.59A22.43,22.43,0,0,0,179,168a26.48,26.48,0,0,0,15.63,4.77,29.45,29.45,0,0,0,9.87-1.63A18.35,18.35,0,0,0,212,166.4a10.91,10.91,0,0,0,2.89-7.69,10.16,10.16,0,0,0-.68-3.78,9.22,9.22,0,0,0-2-3.1,14.23,14.23,0,0,0-3.41-2.48,24.86,24.86,0,0,0-4.8-1.94l-25.33-7.49a65.65,65.65,0,0,1-7-2.56,28.21,28.21,0,0,1-7.15-4.42,21.56,21.56,0,0,1-5.51-7.22,24.61,24.61,0,0,1-2.15-10.86q0-9.45,4.8-15.89a29,29,0,0,1,12.94-9.64,48.2,48.2,0,0,1,18.07-3.13,46.2,46.2,0,0,1,18,3.44,34.42,34.42,0,0,1,13.21,9.77,37.57,37.57,0,0,1,7.49,15.45l-17.63,3.07a19.58,19.58,0,0,0-4.19-8.82,20.09,20.09,0,0,0-7.56-5.55,25.65,25.65,0,0,0-9.49-2,25.14,25.14,0,0,0-9.09,1.46,16.33,16.33,0,0,0-6.74,4.4,9.7,9.7,0,0,0-2.55,6.67,8.19,8.19,0,0,0,2.17,5.89,15.49,15.49,0,0,0,5.42,3.6,51.8,51.8,0,0,0,6.57,2.22l17.56,4.9q3.62,1,8.1,2.59a36.5,36.5,0,0,1,8.65,4.56,23.07,23.07,0,0,1,6.84,7.69q2.69,4.77,2.69,12.12A27.23,27.23,0,0,1,228.91,171a28.27,28.27,0,0,1-8.54,9.56,39,39,0,0,1-12.29,5.72A54.22,54.22,0,0,1,193.61,188.19Z"/><path class="cls-6" d="M246.85,186.14v-98h63.32v15.38H263.26v24.17H302v15.39H263.26v27.71h46.91v15.38Z"/><path class="cls-6" d="M326.51,186.14v-98h16.61l45.48,69.1V88.11h16.61v98H388.6L343.12,117v69.1Z"/><path class="cls-6" d="M447.82,186.14V103.49H416.1V88.11H496v15.38H464.23v82.65Z"/><path class="cls-6" d="M508.21,186.14v-98h16.41v98Z"/><path class="cls-6" d="M545,186.14v-98h5.45l41.66,91.09,41.26-91.09h5.72V186h-5.72V101.86l-38.13,84.28h-6.4l-38.12-84.28v84.28Z"/><path class="cls-6" d="M658.19,186.14v-98H718.1v5.72H663.91v40.44h46V140h-46v40.44H718.1v5.71Z"/><path class="cls-6" d="M734.44,186.14v-98h5.72l59.64,87.82V88.11h5.71v98H799.8l-59.64-88v88Z"/><path class="cls-6" d="M852.35,186.14V93.83H816.41V88.11H894v5.72H858.07v92.31Z"/><path class="cls-6" d="M943.45,188.19q-14.64,0-24.41-6.54a40,40,0,0,1-14.67-18q-4.9-11.51-4.9-26.48t4.9-26.49A40,40,0,0,1,919,92.6q9.76-6.54,24.41-6.53t24.4,6.53a40,40,0,0,1,14.68,18q4.89,11.51,4.9,26.49t-4.9,26.48a40,40,0,0,1-14.68,18Q958.09,188.19,943.45,188.19Zm0-5.72q12.59,0,21-5.82a35.5,35.5,0,0,0,12.63-16,61.09,61.09,0,0,0,4.22-23.48,61.5,61.5,0,0,0-4.22-23.53,35.26,35.26,0,0,0-12.63-16q-8.41-5.79-21-5.79t-20.94,5.79a35.32,35.32,0,0,0-12.56,16,63.22,63.22,0,0,0-4.36,23.53,59.3,59.3,0,0,0,4.09,23.48,35.17,35.17,0,0,0,12.7,16Q930.86,182.47,943.45,182.47Z"/></svg>