<svg id="Layer_1" data-name="Layer 1" xmlns="http://www.w3.org/2000/svg" viewBox="0 0 987.43 274.25"><defs><style>.cls-1{fill:#fff;}</style></defs><path class="cls-1" d="M48,197.55a57,57,0,0,1-22.92-4.43A42.72,42.72,0,0,1,8.34,180.43,41,41,0,0,1,0,160.81l20.14-3.06a26.61,26.61,0,0,0,10.6,15.95,31.3,31.3,0,0,0,18.49,5.64,34.82,34.82,0,0,0,11.68-1.93,21.69,21.69,0,0,0,8.9-5.64,12.88,12.88,0,0,0,3.43-9.1,12,12,0,0,0-.81-4.47,10.8,10.8,0,0,0-2.38-3.67,16.27,16.27,0,0,0-4-2.94,30.54,30.54,0,0,0-5.68-2.3l-30-8.86a76.92,76.92,0,0,1-8.33-3,33.24,33.24,0,0,1-8.46-5.24,25.65,25.65,0,0,1-6.53-8.54,29.16,29.16,0,0,1-2.54-12.85q0-11.2,5.68-18.81A34.18,34.18,0,0,1,25.5,80.57a56.88,56.88,0,0,1,21.39-3.71,54.6,54.6,0,0,1,21.27,4.07A40.77,40.77,0,0,1,83.79,92.49a44.48,44.48,0,0,1,8.86,18.29l-20.86,3.63a23.23,23.23,0,0,0-5-10.44,23.83,23.83,0,0,0-8.94-6.56A30.38,30.38,0,0,0,46.65,95a29.93,29.93,0,0,0-10.76,1.73,19.32,19.32,0,0,0-8,5.2,11.45,11.45,0,0,0-3,7.89,9.66,9.66,0,0,0,2.57,7,18.29,18.29,0,0,0,6.41,4.27,62.81,62.81,0,0,0,7.77,2.62l20.79,5.8c2.85.76,6,1.77,9.59,3.06a43.76,43.76,0,0,1,10.23,5.4,27.5,27.5,0,0,1,8.1,9.11q3.18,5.64,3.18,14.34a32.3,32.3,0,0,1-3.75,15.83,33.47,33.47,0,0,1-10.11,11.32,46.17,46.17,0,0,1-14.54,6.77A64.25,64.25,0,0,1,48,197.55Z"/><path class="cls-1" d="M111,195.13v-116H186V97.33H130.44v28.6h45.84v18.21H130.44v32.79H186v18.2Z"/><path class="cls-1" d="M205.28,195.13v-116h19.66l53.82,81.77V79.12h19.66v116H278.76l-53.82-81.77v81.77Z"/><path class="cls-1" d="M348.85,195.13V97.33H311.31V79.12h94.5V97.33H368.27v97.8Z"/><path class="cls-1" d="M420.32,195.13v-116h19.41v116Z"/><path class="cls-1" d="M463.9,195.13v-116h6.45l49.3,107.8,48.83-107.8h6.77V195h-6.77V95.39l-45.12,99.74h-7.58L470.67,95.39v99.74Z"/><path class="cls-1" d="M597.8,195.13v-116h70.9v6.76H604.57v47.86H659v6.77H604.57v47.86H668.7v6.76Z"/><path class="cls-1" d="M688,195.13v-116h6.77l70.57,103.93V79.12h6.77v116h-6.77L694.81,91V195.13Z"/><path class="cls-1" d="M827.58,195.13V85.88H785V79.12h91.85v6.76H834.35V195.13Z"/><path class="cls-1" d="M935.38,197.55q-17.32,0-28.88-7.73a47.37,47.37,0,0,1-17.37-21.35q-5.79-13.62-5.8-31.34t5.8-31.34A47.35,47.35,0,0,1,906.5,84.43q11.55-7.73,28.88-7.73t28.88,7.73a47.35,47.35,0,0,1,17.37,21.36q5.79,13.6,5.8,31.34t-5.8,31.34a47.37,47.37,0,0,1-17.37,21.35Q952.7,197.55,935.38,197.55Zm0-6.77q14.91,0,24.86-6.88a42,42,0,0,0,14.94-19q5-12.07,5-27.79t-5-27.84a41.62,41.62,0,0,0-14.94-19q-10-6.85-24.86-6.85T910.6,90.32a41.79,41.79,0,0,0-14.86,19q-5,12.12-5.16,27.84t4.84,27.79a41.78,41.78,0,0,0,15,19Q920.47,190.79,935.38,190.78Z"/></svg>