<svg id="Layer_1" data-name="Layer 1" xmlns="http://www.w3.org/2000/svg" xmlns:xlink="http://www.w3.org/1999/xlink" viewBox="0 0 987 2532"><defs><style>.cls-1{fill:url(#linear-gradient);}.cls-2{fill:url(#linear-gradient-2);}.cls-3{fill:url(#linear-gradient-4);}.cls-4{fill:url(#linear-gradient-5);}.cls-5{fill:url(#linear-gradient-7);}</style><linearGradient id="linear-gradient" x1="1168.17" y1="-51.19" x2="94.51" y2="2468.27" gradientUnits="userSpaceOnUse"><stop offset="0" stop-color="#f99170"/><stop offset="1" stop-color="#ad4bf9"/></linearGradient><linearGradient id="linear-gradient-2" x1="827.3" y1="-196.44" x2="-246.35" y2="2323.01" xlink:href="#linear-gradient"/><linearGradient id="linear-gradient-4" x1="856.07" y1="-184.19" x2="-217.59" y2="2335.27" xlink:href="#linear-gradient"/><linearGradient id="linear-gradient-5" x1="1400.63" y1="47.88" x2="326.97" y2="2567.33" xlink:href="#linear-gradient"/><linearGradient id="linear-gradient-7" x1="1345.27" y1="24.29" x2="271.62" y2="2543.74" xlink:href="#linear-gradient"/></defs><circle class="cls-1" cx="641.14" cy="1185.55" r="65.97"/><path class="cls-2" d="M921,0a66,66,0,0,0-66,66c0,.52.15,1,.16,1.53L33.85,552V1553.41L606.1,1241.25a65.87,65.87,0,1,0-30.87-56.34L98.1,1445.18V588.74L888,122.76A65.86,65.86,0,1,0,921,0Z"/><path class="cls-2" d="M921,0a66,66,0,0,0-66,66c0,.52.15,1,.16,1.53L33.85,552V1553.41L606.1,1241.25a65.87,65.87,0,1,0-30.87-56.34L98.1,1445.18V588.74L888,122.76A65.86,65.86,0,1,0,921,0Z"/><path class="cls-3" d="M778.37,269.85a43.06,43.06,0,0,0-43,43c0,.34.1.66.11,1l-536,316.19v653.47l373.43-203.71a43,43,0,1,0-20.14-36.76L241.35,1212.93V654.05L756.81,350a43,43,0,1,0,21.56-80.11Z"/><path class="cls-4" d="M987,1032.72a66,66,0,1,0-98.08,57.3v853.25L99,2409.26A65.28,65.28,0,0,0,66,2400.07a66,66,0,1,0,66,66c0-.52-.14-1-.15-1.52L953.17,1980V1090A65.67,65.67,0,0,0,987,1032.72Z"/><path class="cls-4" d="M987,1032.72a66,66,0,1,0-98.08,57.3v853.25L99,2409.26A65.28,65.28,0,0,0,66,2400.07a66,66,0,1,0,66,66c0-.52-.14-1-.15-1.52L953.17,1980V1090A65.67,65.67,0,0,0,987,1032.72Z"/><path class="cls-5" d="M809.68,1290.22a42.27,42.27,0,1,0-62.84,36.71V1873.6L240.76,2172.16a41.78,41.78,0,0,0-21.18-5.89,42.27,42.27,0,1,0,42.27,42.27c0-.34-.09-.64-.1-1L788,1897.12v-570.2A42.08,42.08,0,0,0,809.68,1290.22Z"/></svg>